<svg width="400" height="320" viewBox="0 0 400 320" fill="none" xmlns="http://www.w3.org/2000/svg">
<g clip-path="url(#clip0_819_319)">
<path d="M374.479 62.3333C388.773 80.9854 385.61 105.148 385.61 105.148C385.61 105.148 359.273 99.0693 344.979 80.4172C330.686 61.7651 333.849 37.6027 333.849 37.6027C333.849 37.6027 360.186 43.6813 374.479 62.3333Z" fill="#2F2E41"/>
<path d="M364.195 65.8948C365.868 88.4579 385.066 105.691 385.066 105.691C385.066 105.691 401.553 86.3418 399.881 63.7787C398.208 41.2157 379.009 23.9828 379.009 23.9828C379.009 23.9828 362.522 43.3318 364.195 65.8948Z" fill="#F9A826"/>
<path d="M200.089 0.469833L394.149 87.7322C395.763 88.4578 397.101 89.593 397.997 90.9958C398.892 92.3985 399.305 94.0064 399.183 95.6179L387.908 244.989C387.858 245.659 387.623 246.307 387.224 246.876C386.825 247.445 386.274 247.916 385.622 248.249C384.97 248.581 384.235 248.764 383.485 248.78C382.734 248.797 381.991 248.647 381.321 248.344L182.835 157.745L193.025 4.11112C193.073 3.38944 193.321 2.68969 193.746 2.07473C194.171 1.45977 194.76 0.948841 195.46 0.58784C196.161 0.226839 196.95 0.0270692 197.758 0.0064719C198.566 -0.0141254 199.367 0.145095 200.089 0.469833Z" fill="#D0CDE1"/>
<path d="M202.323 3.51371L391.616 88.6327C393.19 89.3404 394.496 90.4478 395.369 91.8161C396.243 93.1844 396.645 94.7527 396.526 96.3248L385.529 242.027C385.479 242.68 385.25 243.313 384.861 243.868C384.471 244.422 383.935 244.882 383.298 245.207C382.662 245.531 381.946 245.709 381.214 245.725C380.482 245.741 379.756 245.595 379.103 245.3L185.493 156.926L195.433 7.06556C195.479 6.36161 195.721 5.67904 196.135 5.07918C196.55 4.47932 197.124 3.98095 197.808 3.62882C198.491 3.27668 199.261 3.08182 200.049 3.06173C200.837 3.04163 201.618 3.19694 202.323 3.51371Z" fill="#3F3D56"/>
<path d="M210.619 14.8195L382.208 91.9773C383.634 92.6189 384.818 93.6227 385.609 94.863C386.401 96.1033 386.766 97.5249 386.658 98.9499L376.689 231.025C376.645 231.617 376.436 232.19 376.084 232.693C375.731 233.196 375.244 233.613 374.668 233.907C374.091 234.201 373.442 234.362 372.778 234.377C372.114 234.392 371.457 234.259 370.864 233.991L195.363 153.883L204.373 18.0391C204.415 17.401 204.634 16.7823 205.01 16.2385C205.385 15.6948 205.906 15.243 206.526 14.9238C207.145 14.6046 207.843 14.428 208.557 14.4098C209.272 14.3916 209.98 14.5323 210.619 14.8195Z" fill="white"/>
<path d="M33.5648 231.245L227.873 318.767C229.681 319.58 231.677 320.002 233.701 320C235.726 319.998 237.721 319.571 239.527 318.753L383.27 253.49C384.956 251.983 384.72 249.749 384.181 248.071C383.92 247.259 383.564 246.474 383.119 245.729L363.531 236.514L198.84 163.021L189 158.349C186.396 157.116 183.495 156.466 180.547 156.455C177.6 156.444 174.693 157.073 172.077 158.288L33.504 222.668C32.6224 223.076 31.884 223.694 31.3706 224.454C30.8573 225.214 30.5889 226.086 30.5952 226.973C30.6015 227.861 30.8822 228.73 31.4063 229.484C31.9304 230.238 32.6774 230.847 33.5648 231.245Z" fill="#D0CDE1"/>
<path opacity="0.1" d="M33.5648 231.245L227.873 318.767C229.681 319.58 231.677 320.002 233.701 320C235.725 319.998 237.721 319.571 239.527 318.753L383.27 253.49C384.956 251.983 384.72 249.749 384.181 248.071L240.867 314.696C239.119 315.509 237.18 315.941 235.209 315.956C233.238 315.971 231.291 315.569 229.527 314.783L30.6645 226.172C30.4775 227.184 30.6584 228.223 31.1804 229.136C31.7025 230.049 32.5382 230.788 33.5648 231.245Z" fill="black"/>
<path opacity="0.1" d="M217.994 257.468L155.067 229.027C153.8 228.455 152.398 228.163 150.978 228.178C149.559 228.192 148.164 228.512 146.912 229.11L110.408 246.553C109.986 246.754 109.635 247.056 109.391 247.424C109.148 247.792 109.022 248.213 109.028 248.64C109.033 249.068 109.17 249.486 109.423 249.849C109.676 250.212 110.036 250.506 110.463 250.698L174.623 279.636C175.689 280.116 176.87 280.355 178.063 280.33C179.256 280.306 180.423 280.019 181.463 279.495L218.113 261.028C218.47 260.848 218.765 260.584 218.967 260.264C219.169 259.945 219.269 259.582 219.257 259.216C219.244 258.849 219.12 258.493 218.898 258.185C218.675 257.877 218.363 257.629 217.994 257.468Z" fill="black"/>
<path opacity="0.1" d="M366.196 252.712L298.481 284.886C297.702 285.256 296.835 285.454 295.953 285.462C295.07 285.47 294.199 285.288 293.412 284.932L102.087 198.396C101.548 198.153 101.096 197.779 100.781 197.318C100.465 196.858 100.3 196.327 100.302 195.787C100.305 195.247 100.475 194.718 100.795 194.259C101.115 193.801 101.571 193.431 102.112 193.191L168.238 163.919C169.234 163.478 170.332 163.25 171.444 163.254C172.556 163.257 173.652 163.492 174.645 163.939L366.167 250.246C366.421 250.361 366.635 250.535 366.785 250.751C366.936 250.967 367.017 251.216 367.02 251.471C367.023 251.725 366.948 251.976 366.803 252.194C366.658 252.413 366.448 252.592 366.196 252.712Z" fill="black"/>
<path d="M258.168 92.2532L257.829 92.8607L320.085 120.701L320.425 120.094L258.168 92.2532Z" fill="#F9A826"/>
<path d="M258.163 100.418L257.817 101.022L320.091 129.513L320.436 128.909L258.163 100.418Z" fill="#F9A826"/>
<path d="M269.562 116.017L269.217 116.622L304.895 132.927L305.241 132.322L269.562 116.017Z" fill="#F9A826"/>
<path d="M74.6375 150.013C74.6375 150.013 59.4559 144.097 52.3251 150.347C45.1944 156.597 71.4172 154.539 74.6375 150.013Z" fill="#3F3D56"/>
<path d="M48.4229 121.953C53.5247 114.243 63.6184 113.884 63.6184 113.884C63.6184 113.884 73.4541 112.759 79.7636 124.502C85.6446 135.447 93.7611 146.015 81.0703 148.577L78.778 142.196L77.3584 149.052C75.5514 149.168 73.7388 149.196 71.9284 149.135C58.3376 148.742 45.3944 149.25 45.8111 144.888C46.3651 139.089 43.5138 129.372 48.4229 121.953Z" fill="#2F2E41"/>
<path d="M41.284 261.726C41.284 261.726 47.7247 272.424 51.8651 272.424C56.0056 272.424 55.5455 279.419 54.6254 281.065C53.7053 282.711 51.4051 286.414 55.0855 291.763C56.371 293.631 56.141 295.751 55.2974 297.718C52.9338 303.23 43.7392 301.56 44.0325 295.662C44.0358 295.597 44.0397 295.532 44.0443 295.466C44.5043 288.883 40.8239 278.596 37.1435 276.127C33.4631 273.659 30.2428 267.075 30.2428 267.075L41.284 261.726Z" fill="#FFB8B8"/>
<path d="M85.4486 259.257C85.4486 259.257 79.0079 269.955 74.8675 269.955C70.727 269.955 71.1871 276.95 72.1072 278.596C73.0273 280.242 75.3275 283.945 71.6471 289.294C70.3616 291.163 70.5915 293.282 71.4351 295.249C73.7988 300.761 82.9934 299.091 82.7001 293.194C82.6968 293.129 82.6929 293.063 82.6883 292.997C82.2282 286.414 85.9086 276.127 89.589 273.659C93.2694 271.19 96.4898 264.606 96.4898 264.606L85.4486 259.257Z" fill="#FFB8B8"/>
<path d="M80.3881 206.59L83.1484 211.939C83.1484 211.939 123.633 223.871 119.952 237.861C116.272 251.851 98.3301 273.659 95.5698 272.836C92.8095 272.013 78.0879 269.544 77.6278 262.549C77.1678 255.554 88.209 243.21 88.209 243.21L73.0274 230.866L50.9356 230.455L32.0829 243.21C32.0829 243.21 51.8651 258.846 43.1241 265.018C34.3832 271.19 21.5018 275.304 19.6616 272.836C17.8214 270.367 -2.88082 233.746 0.33952 230.455C3.55986 227.163 36.2234 214.819 36.2234 214.819L44.9643 203.71L79.008 202.064L80.3881 206.59Z" fill="#2F2E41"/>
<path d="M72.1072 138.698C72.1072 138.698 69.8069 152.276 74.4074 153.922C79.0079 155.568 65.2065 162.563 65.2065 162.563H57.3856L52.3251 153.099C52.3251 153.099 56.9256 145.693 54.1653 138.698C51.405 131.703 72.1072 138.698 72.1072 138.698Z" fill="#FFB8B8"/>
<path opacity="0.1" d="M72.1072 138.698C72.1072 138.698 69.8069 152.276 74.4074 153.922C79.0079 155.568 65.2065 162.563 65.2065 162.563H57.3856L52.3251 153.099C52.3251 153.099 56.9256 145.693 54.1653 138.698C51.405 131.703 72.1072 138.698 72.1072 138.698Z" fill="black"/>
<path d="M75.3276 150.219C75.3276 150.219 70.267 155.157 69.3469 155.98C68.4268 156.802 64.2864 161.329 55.5454 154.745C46.8045 148.162 45.8844 155.98 45.8844 155.98V205.355C45.8844 205.355 53.2452 202.475 59.2258 205.355C65.2065 208.236 77.6278 204.532 77.6278 204.532L79.9281 153.511L75.3276 150.219Z" fill="#D0CDE1"/>
<path d="M71.9484 150.219C71.9484 150.219 76.2477 148.573 79.9281 150.219C83.6085 151.865 96.4899 160.094 95.5698 163.797C94.6497 167.501 82.6884 193.423 90.9693 205.767C99.2502 218.111 100.63 221.402 100.63 221.402L80.3882 211.939C80.3882 211.939 64.7465 203.298 66.1266 197.949C67.5068 192.6 71.9484 150.219 71.9484 150.219Z" fill="#3F3D56"/>
<path d="M53.6998 150.219C53.6998 150.219 44.0442 151.042 43.5842 151.865C43.1241 152.688 29.0926 156.185 30.0127 159.888C30.9328 163.592 43.5842 196.715 38.0636 202.887C32.543 209.059 23.342 217.699 26.5624 218.522C29.7827 219.345 35.3033 217.288 40.8239 218.522C46.3445 219.757 59.2259 209.47 57.8457 198.36C56.4656 187.251 57.8349 153.099 53.6998 150.219Z" fill="#3F3D56"/>
<path d="M76.7078 228.809V232.923C76.7078 232.923 79.008 242.387 71.6472 241.976C64.2865 241.564 68.8869 230.455 68.8869 230.455L69.347 226.752L76.7078 228.809Z" fill="#FFB8B8"/>
<path d="M56.0055 229.22C56.0055 229.22 61.066 238.684 56.0055 239.507C50.9449 240.33 47.2645 234.158 47.2645 232.512C47.2645 230.866 56.0055 229.22 56.0055 229.22Z" fill="#FFB8B8"/>
<path d="M49.3348 134.789C49.8429 134.789 50.2549 134.052 50.2549 133.143C50.2549 132.234 49.8429 131.497 49.3348 131.497C48.8266 131.497 48.4147 132.234 48.4147 133.143C48.4147 134.052 48.8266 134.789 49.3348 134.789Z" fill="#FFB8B8"/>
<path d="M76.4777 134.789C76.9859 134.789 77.3978 134.052 77.3978 133.143C77.3978 132.234 76.9859 131.497 76.4777 131.497C75.9696 131.497 75.5576 132.234 75.5576 133.143C75.5576 134.052 75.9696 134.789 76.4777 134.789Z" fill="#FFB8B8"/>
<path d="M41.2839 155.568C41.2839 155.568 29.7826 155.568 30.2427 159.683C30.7027 163.797 45.8844 234.569 45.8844 234.569C45.8844 234.569 52.3251 229.22 57.8457 230.455L41.2839 155.568Z" fill="#3F3D56"/>
<path d="M85.9087 156.802C85.9087 156.802 97.4099 158.86 97.4099 165.032C97.4099 171.204 80.8481 230.455 78.5479 230.455C76.2477 230.455 67.5067 229.22 67.5067 227.163C67.5067 225.106 85.9087 156.802 85.9087 156.802Z" fill="#3F3D56"/>
<path opacity="0.2" d="M83.3785 168.941L73.0273 205.146C73.0273 205.146 77.8579 173.467 83.3785 168.941Z" fill="black"/>
<path opacity="0.2" d="M43.1163 163.853L53.5852 211.19C53.5852 211.19 50.2393 166.584 43.1163 163.853Z" fill="black"/>
<path d="M62.9063 145.282C70.2745 145.282 76.2477 139.939 76.2477 133.349C76.2477 126.759 70.2745 121.417 62.9063 121.417C55.538 121.417 49.5648 126.759 49.5648 133.349C49.5648 139.939 55.538 145.282 62.9063 145.282Z" fill="#FFB8B8"/>
<path d="M50.6785 121.21L60.6507 116.538L74.4215 118.449L77.2706 129.704L70.1784 129.461L68.197 125.325V129.392L64.9243 129.28L63.0248 122.696L61.8377 129.704L50.2035 129.492L50.6785 121.21Z" fill="#2F2E41"/>
<path d="M200.215 51.9352L194.716 63.6325L241.131 85.4231L256.768 44.4949" fill="#F2F2F2"/>
<path d="M240.061 78.2465L260.565 35.0945L213.438 14.3532L193.646 56.4559L240.061 78.2465Z" fill="#F9A826"/>
<path d="M212.324 30.8546L211.979 31.4594L247.658 47.7647L248.003 47.1599L212.324 30.8546Z" fill="white"/>
<path d="M209.65 36.5959L209.304 37.2007L244.983 53.506L245.328 52.9012L209.65 36.5959Z" fill="white"/>
</g>
<defs>
<clipPath id="clip0_819_319">
<rect width="400" height="320" fill="white"/>
</clipPath>
</defs>
</svg>
