<svg width="41" height="53" viewBox="0 0 41 53" fill="none" xmlns="http://www.w3.org/2000/svg">
<path d="M3 47V8.60828C3 6.39914 4.79086 4.60828 7 4.60828H34C36.2091 4.60828 38 6.39914 38 8.60828V47C38 49.2092 36.2091 51 34 51H7C4.79086 51 3 49.2092 3 47Z" stroke="#2E2E2E" stroke-width="2.5"/>
<path d="M28.2778 5.72222V2.94444C28.2778 1.87056 29.1484 1 30.2223 1C31.2962 1 32.1667 1.87056 32.1667 2.94444V5.72222C32.1667 6.79611 31.2962 7.66667 30.2223 7.66667C29.1484 7.66667 28.2778 6.79611 28.2778 5.72222Z" fill="#FAFCFF" stroke="#2E2E2E" stroke-width="2"/>
<path d="M18.9445 5.72222V2.94444C18.9445 1.87056 19.815 1 20.8889 1C21.9628 1 22.8333 1.87056 22.8333 2.94444V5.72222C22.8333 6.79611 21.9628 7.66667 20.8889 7.66667C19.815 7.66667 18.9445 6.79611 18.9445 5.72222Z" fill="#FAFCFF" stroke="#2E2E2E" stroke-width="2"/>
<path d="M8.83337 5.72222V2.94444C8.83337 1.87056 9.70393 1 10.7778 1C11.8517 1 12.7223 1.87056 12.7223 2.94444V5.72222C12.7223 6.79611 11.8517 7.66667 10.7778 7.66667C9.70393 7.66667 8.83337 6.79611 8.83337 5.72222Z" fill="#FAFCFF" stroke="#2E2E2E" stroke-width="2"/>
<path d="M11 29.785L18.9614 37.3866L30.4444 18" stroke="#FFB74A" stroke-width="4" stroke-miterlimit="10" stroke-linecap="round" stroke-linejoin="round"/>
</svg>
